<?xml version="1.0" encoding="UTF-8"?>
<!DOCTYPE svg PUBLIC "-//W3C//DTD SVG 1.1//EN" "http://www.w3.org/Graphics/SVG/1.1/DTD/svg11.dtd">
<svg xmlns="http://www.w3.org/2000/svg" version="1.1" width="500px" height="500px" style="shape-rendering:geometricPrecision; text-rendering:geometricPrecision; image-rendering:optimizeQuality; fill-rule:evenodd; clip-rule:evenodd" xmlns:xlink="http://www.w3.org/1999/xlink">
<g><path style="opacity:1" fill="#fee1c2" d="M 142.5,35.5 C 144.167,35.5 145.833,35.5 147.5,35.5C 146.932,62.0473 146.598,88.5473 146.5,115C 147.167,115.667 147.833,116.333 148.5,117C 147.167,133.667 147.167,150.333 148.5,167C 147.756,168.039 146.756,168.539 145.5,168.5C 142.557,160.002 139.223,151.669 135.5,143.5C 138.826,143.033 139.159,141.866 136.5,140C 139.167,138.667 139.167,137.333 136.5,136C 139.167,134.667 139.167,133.333 136.5,132C 139.167,130.667 139.167,129.333 136.5,128C 139.167,126.667 139.167,125.333 136.5,124C 139.167,122.667 139.167,121.333 136.5,120C 139.167,118.667 139.167,117.333 136.5,116C 139.167,114.667 139.167,113.333 136.5,112C 139.167,110.667 139.167,109.333 136.5,108C 139.167,106.667 139.167,105.333 136.5,104C 139.167,102.667 139.167,101.333 136.5,100C 139.167,98.6667 139.167,97.3333 136.5,96C 139.167,94.6667 139.167,93.3333 136.5,92C 139.167,90.6667 139.167,89.3333 136.5,88C 139.167,86.6667 139.167,85.3333 136.5,84C 139.167,82.6667 139.167,81.3333 136.5,80C 139.167,78.6667 139.167,77.3333 136.5,76C 139.167,74.6667 139.167,73.3333 136.5,72C 139.167,70.6667 139.167,69.3333 136.5,68C 139.167,66.6667 139.167,65.3333 136.5,64C 139.167,62.6667 139.167,61.3333 136.5,60C 139.167,58.6667 139.167,57.3333 136.5,56C 139.167,54.6667 139.167,53.3333 136.5,52C 139.167,50.6667 139.167,49.3333 136.5,48C 139.167,46.6667 139.167,45.3333 136.5,44C 139.167,42.6667 139.167,41.3333 136.5,40C 138.956,37.841 138.29,37.0077 134.5,37.5C 136.838,35.9605 139.505,35.2938 142.5,35.5 Z"/></g>
<g><path style="opacity:1" fill="#feddc5" d="M 147.5,35.5 C 157.167,35.5 166.833,35.5 176.5,35.5C 176.071,81.3814 176.071,127.381 176.5,173.5C 172.234,186.036 167.401,198.369 162,210.5C 156.761,196.363 151.261,182.363 145.5,168.5C 146.756,168.539 147.756,168.039 148.5,167C 147.167,150.333 147.167,133.667 148.5,117C 147.833,116.333 147.167,115.667 146.5,115C 146.598,88.5473 146.932,62.0473 147.5,35.5 Z"/></g>
<g><path style="opacity:1" fill="#fedac8" d="M 176.5,35.5 C 179.5,35.5 182.5,35.5 185.5,35.5C 184.71,36.7942 183.71,37.9609 182.5,39C 183.5,40 184.5,41 185.5,42C 184.167,42.6667 184.167,43.3333 185.5,44C 184.5,45 183.5,46 182.5,47C 183.5,48 184.5,49 185.5,50C 184.167,50.6667 184.167,51.3333 185.5,52C 184.5,53 183.5,54 182.5,55C 183.5,56 184.5,57 185.5,58C 184.167,58.6667 184.167,59.3333 185.5,60C 184.5,61 183.5,62 182.5,63C 183.5,64 184.5,65 185.5,66C 184.167,66.6667 184.167,67.3333 185.5,68C 184.5,69 183.5,70 182.5,71C 183.5,72 184.5,73 185.5,74C 184.167,74.6667 184.167,75.3333 185.5,76C 184.5,77 183.5,78 182.5,79C 183.5,80 184.5,81 185.5,82C 184.167,82.6667 184.167,83.3333 185.5,84C 184.5,85 183.5,86 182.5,87C 183.5,88 184.5,89 185.5,90C 184.167,90.6667 184.167,91.3333 185.5,92C 184.5,93 183.5,94 182.5,95C 183.5,96 184.5,97 185.5,98C 184.167,98.6667 184.167,99.3333 185.5,100C 184.5,101 183.5,102 182.5,103C 183.5,104 184.5,105 185.5,106C 184.167,106.667 184.167,107.333 185.5,108C 184.5,109 183.5,110 182.5,111C 183.5,112 184.5,113 185.5,114C 184.167,114.667 184.167,115.333 185.5,116C 184.5,117 183.5,118 182.5,119C 183.5,120 184.5,121 185.5,122C 184.167,122.667 184.167,123.333 185.5,124C 184.5,125 183.5,126 182.5,127C 183.5,128 184.5,129 185.5,130C 184.167,130.667 184.167,131.333 185.5,132C 184.5,133 183.5,134 182.5,135C 183.5,136 184.5,137 185.5,138C 184.167,138.667 184.167,139.333 185.5,140C 184.5,141 183.5,142 182.5,143C 183.5,144 184.5,145 185.5,146C 184.167,146.667 184.167,147.333 185.5,148C 182.853,150.084 182.186,152.584 183.5,155.5C 181.538,161.733 179.204,167.733 176.5,173.5C 176.071,127.381 176.071,81.3814 176.5,35.5 Z"/></g>
<g><path style="opacity:1" fill="#fed7cb" d="M 185.5,35.5 C 197.328,35.0227 208.995,35.5227 220.5,37C 219.402,71.1178 219.402,105.285 220.5,139.5C 211.494,139.334 202.494,139.5 193.5,140C 191.91,141.046 190.41,142.213 189,143.5C 187.241,147.644 185.408,151.644 183.5,155.5C 182.186,152.584 182.853,150.084 185.5,148C 184.167,147.333 184.167,146.667 185.5,146C 184.5,145 183.5,144 182.5,143C 183.5,142 184.5,141 185.5,140C 184.167,139.333 184.167,138.667 185.5,138C 184.5,137 183.5,136 182.5,135C 183.5,134 184.5,133 185.5,132C 184.167,131.333 184.167,130.667 185.5,130C 184.5,129 183.5,128 182.5,127C 183.5,126 184.5,125 185.5,124C 184.167,123.333 184.167,122.667 185.5,122C 184.5,121 183.5,120 182.5,119C 183.5,118 184.5,117 185.5,116C 184.167,115.333 184.167,114.667 185.5,114C 184.5,113 183.5,112 182.5,111C 183.5,110 184.5,109 185.5,108C 184.167,107.333 184.167,106.667 185.5,106C 184.5,105 183.5,104 182.5,103C 183.5,102 184.5,101 185.5,100C 184.167,99.3333 184.167,98.6667 185.5,98C 184.5,97 183.5,96 182.5,95C 183.5,94 184.5,93 185.5,92C 184.167,91.3333 184.167,90.6667 185.5,90C 184.5,89 183.5,88 182.5,87C 183.5,86 184.5,85 185.5,84C 184.167,83.3333 184.167,82.6667 185.5,82C 184.5,81 183.5,80 182.5,79C 183.5,78 184.5,77 185.5,76C 184.167,75.3333 184.167,74.6667 185.5,74C 184.5,73 183.5,72 182.5,71C 183.5,70 184.5,69 185.5,68C 184.167,67.3333 184.167,66.6667 185.5,66C 184.5,65 183.5,64 182.5,63C 183.5,62 184.5,61 185.5,60C 184.167,59.3333 184.167,58.6667 185.5,58C 184.5,57 183.5,56 182.5,55C 183.5,54 184.5,53 185.5,52C 184.167,51.3333 184.167,50.6667 185.5,50C 184.5,49 183.5,48 182.5,47C 183.5,46 184.5,45 185.5,44C 184.167,43.3333 184.167,42.6667 185.5,42C 184.5,41 183.5,40 182.5,39C 183.71,37.9609 184.71,36.7942 185.5,35.5 Z"/></g>
<g><path style="opacity:1" fill="#fdd1d1" d="M 142.5,35.5 C 213.833,34.1667 285.167,34.1667 356.5,35.5C 351.167,35.5 345.833,35.5 340.5,35.5C 338.833,35.5 337.167,35.5 335.5,35.5C 324.5,35.5 313.5,35.5 302.5,35.5C 300.167,35.5 297.833,35.5 295.5,35.5C 283.162,35.3335 270.829,35.5001 258.5,36C 259.634,37.016 259.301,37.6827 257.5,38C 259.513,39.7913 259.513,41.1247 257.5,42C 259.513,43.7913 259.513,45.1247 257.5,46C 259.513,47.7913 259.513,49.1247 257.5,50C 259.513,51.7913 259.513,53.1247 257.5,54C 259.513,55.7913 259.513,57.1247 257.5,58C 259.513,59.7913 259.513,61.1247 257.5,62C 259.513,63.7913 259.513,65.1247 257.5,66C 259.513,67.7913 259.513,69.1247 257.5,70C 259.513,71.7913 259.513,73.1247 257.5,74C 258.097,75.8886 258.431,77.7219 258.5,79.5C 257.96,80.7481 257.293,81.9148 256.5,83C 258.878,83.9745 258.544,84.6411 255.5,85C 256.5,86 257.5,87 258.5,88C 257.5,88.3333 256.5,88.6667 255.5,89C 256.5,90 257.5,91 258.5,92C 257.5,92.3333 256.5,92.6667 255.5,93C 256.5,94 257.5,95 258.5,96C 257.5,96.3333 256.5,96.6667 255.5,97C 256.5,98 257.5,99 258.5,100C 257.5,100.333 256.5,100.667 255.5,101C 256.5,102 257.5,103 258.5,104C 257.5,104.333 256.5,104.667 255.5,105C 256.5,106 257.5,107 258.5,108C 257.5,108.333 256.5,108.667 255.5,109C 256.5,110 257.5,111 258.5,112C 257.5,112.333 256.5,112.667 255.5,113C 256.5,114 257.5,115 258.5,116C 257.5,116.333 256.5,116.667 255.5,117C 256.5,118 257.5,119 258.5,120C 257.5,120.333 256.5,120.667 255.5,121C 256.5,122 257.5,123 258.5,124C 257.5,124.333 256.5,124.667 255.5,125C 256.5,126 257.5,127 258.5,128C 257.5,128.333 256.5,128.667 255.5,129C 256.5,130 257.5,131 258.5,132C 257.5,132.333 256.5,132.667 255.5,133C 256.5,134 257.5,135 258.5,136C 255.456,136.359 255.122,137.026 257.5,138C 256.944,138.383 256.611,138.883 256.5,139.5C 250.93,138.416 246.43,140.083 243,144.5C 242.333,213.5 242.333,282.5 243,351.5C 244.674,355.089 247.507,356.755 251.5,356.5C 254.758,357.171 258.091,358.004 261.5,359C 260.833,359.333 260.167,359.667 259.5,360C 260.833,360.667 260.833,361.333 259.5,362C 262.167,362.667 262.167,363.333 259.5,364C 260.833,364.667 260.833,365.333 259.5,366C 262.167,366.667 262.167,367.333 259.5,368C 260.833,368.667 260.833,369.333 259.5,370C 262.167,370.667 262.167,371.333 259.5,372C 260.833,372.667 260.833,373.333 259.5,374C 262.167,374.667 262.167,375.333 259.5,376C 260.833,376.667 260.833,377.333 259.5,378C 262.167,378.667 262.167,379.333 259.5,380C 260.833,380.667 260.833,381.333 259.5,382C 262.167,382.667 262.167,383.333 259.5,384C 260.833,384.667 260.833,385.333 259.5,386C 262.167,386.667 262.167,387.333 259.5,388C 260.833,388.667 260.833,389.333 259.5,390C 262.167,390.667 262.167,391.333 259.5,392C 260.833,392.667 260.833,393.333 259.5,394C 262.167,394.667 262.167,395.333 259.5,396C 260.833,396.667 260.833,397.333 259.5,398C 262.167,398.667 262.167,399.333 259.5,400C 260.833,400.667 260.833,401.333 259.5,402C 262.167,402.667 262.167,403.333 259.5,404C 260.833,404.667 260.833,405.333 259.5,406C 262.167,406.667 262.167,407.333 259.5,408C 260.833,408.667 260.833,409.333 259.5,410C 262.167,410.667 262.167,411.333 259.5,412C 260.833,412.667 260.833,413.333 259.5,414C 262.167,414.667 262.167,415.333 259.5,416C 260.833,416.667 260.833,417.333 259.5,418C 262.167,418.667 262.167,419.333 259.5,420C 260.833,420.667 260.833,421.333 259.5,422C 262.167,422.667 262.167,423.333 259.5,424C 259.587,436.797 259.587,449.63 259.5,462.5C 271.815,463.499 284.149,463.832 296.5,463.5C 298.833,463.5 301.167,463.5 303.5,463.5C 313.833,463.5 324.167,463.5 334.5,463.5C 342.167,463.5 349.833,463.5 357.5,463.5C 285.5,464.833 213.5,464.833 141.5,463.5C 143.167,463.5 144.833,463.5 146.5,463.5C 156.167,463.5 165.833,463.5 175.5,463.5C 178.5,463.5 181.5,463.5 184.5,463.5C 196.505,463.667 208.505,463.5 220.5,463C 220.5,416.333 220.5,369.667 220.5,323C 219.833,321.667 219.167,320.333 218.5,319C 218.833,275.333 219.167,231.667 219.5,188C 218.956,187.283 218.289,186.783 217.5,186.5C 222.777,173.612 227.777,160.612 232.5,147.5C 230.933,141.372 226.933,138.706 220.5,139.5C 219.402,105.285 219.402,71.1178 220.5,37C 208.995,35.5227 197.328,35.0227 185.5,35.5C 182.5,35.5 179.5,35.5 176.5,35.5C 166.833,35.5 157.167,35.5 147.5,35.5C 145.833,35.5 144.167,35.5 142.5,35.5 Z"/></g>
<g><path style="opacity:1" fill="#fecbd7" d="M 295.5,35.5 C 297.931,37.0682 297.931,38.5682 295.5,40C 298.167,41.3333 298.167,42.6667 295.5,44C 298.167,45.3333 298.167,46.6667 295.5,48C 298.167,49.3333 298.167,50.6667 295.5,52C 298.167,53.3333 298.167,54.6667 295.5,56C 298.167,57.3333 298.167,58.6667 295.5,60C 298.167,61.3333 298.167,62.6667 295.5,64C 298.167,65.3333 298.167,66.6667 295.5,68C 298.167,69.3333 298.167,70.6667 295.5,72C 298.167,73.3333 298.167,74.6667 295.5,76C 298.167,77.3333 298.167,78.6667 295.5,80C 298.167,81.3333 298.167,82.6667 295.5,84C 298.167,85.3333 298.167,86.6667 295.5,88C 298.167,89.3333 298.167,90.6667 295.5,92C 298.167,93.3333 298.167,94.6667 295.5,96C 298.167,97.3333 298.167,98.6667 295.5,100C 298.167,101.333 298.167,102.667 295.5,104C 298.167,105.333 298.167,106.667 295.5,108C 298.167,109.333 298.167,110.667 295.5,112C 298.167,113.333 298.167,114.667 295.5,116C 298.167,117.333 298.167,118.667 295.5,120C 298.167,121.333 298.167,122.667 295.5,124C 298.167,125.333 298.167,126.667 295.5,128C 298.167,129.333 298.167,130.667 295.5,132C 298.167,133.333 298.167,134.667 295.5,136C 298.167,137.333 298.167,138.667 295.5,140C 297.912,141.836 297.578,143.336 294.5,144.5C 293.106,142.292 291.106,140.792 288.5,140C 277.839,139.5 267.172,139.333 256.5,139.5C 256.611,138.883 256.944,138.383 257.5,138C 255.122,137.026 255.456,136.359 258.5,136C 257.5,135 256.5,134 255.5,133C 256.5,132.667 257.5,132.333 258.5,132C 257.5,131 256.5,130 255.5,129C 256.5,128.667 257.5,128.333 258.5,128C 257.5,127 256.5,126 255.5,125C 256.5,124.667 257.5,124.333 258.5,124C 257.5,123 256.5,122 255.5,121C 256.5,120.667 257.5,120.333 258.5,120C 257.5,119 256.5,118 255.5,117C 256.5,116.667 257.5,116.333 258.5,116C 257.5,115 256.5,114 255.5,113C 256.5,112.667 257.5,112.333 258.5,112C 257.5,111 256.5,110 255.5,109C 256.5,108.667 257.5,108.333 258.5,108C 257.5,107 256.5,106 255.5,105C 256.5,104.667 257.5,104.333 258.5,104C 257.5,103 256.5,102 255.5,101C 256.5,100.667 257.5,100.333 258.5,100C 257.5,99 256.5,98 255.5,97C 256.5,96.6667 257.5,96.3333 258.5,96C 257.5,95 256.5,94 255.5,93C 256.5,92.6667 257.5,92.3333 258.5,92C 257.5,91 256.5,90 255.5,89C 256.5,88.6667 257.5,88.3333 258.5,88C 257.5,87 256.5,86 255.5,85C 258.544,84.6411 258.878,83.9745 256.5,83C 257.293,81.9148 257.96,80.7481 258.5,79.5C 258.431,77.7219 258.097,75.8886 257.5,74C 259.513,73.1247 259.513,71.7913 257.5,70C 259.513,69.1247 259.513,67.7913 257.5,66C 259.513,65.1247 259.513,63.7913 257.5,62C 259.513,61.1247 259.513,59.7913 257.5,58C 259.513,57.1247 259.513,55.7913 257.5,54C 259.513,53.1247 259.513,51.7913 257.5,50C 259.513,49.1247 259.513,47.7913 257.5,46C 259.513,45.1247 259.513,43.7913 257.5,42C 259.513,41.1247 259.513,39.7913 257.5,38C 259.301,37.6827 259.634,37.016 258.5,36C 270.829,35.5001 283.162,35.3335 295.5,35.5 Z"/></g>
<g><path style="opacity:1" fill="#fec7da" d="M 295.5,35.5 C 297.833,35.5 300.167,35.5 302.5,35.5C 303.069,79.3813 303.402,123.215 303.5,167C 302.756,168.039 301.756,168.539 300.5,168.5C 299.129,160.302 297.129,152.302 294.5,144.5C 297.578,143.336 297.912,141.836 295.5,140C 298.167,138.667 298.167,137.333 295.5,136C 298.167,134.667 298.167,133.333 295.5,132C 298.167,130.667 298.167,129.333 295.5,128C 298.167,126.667 298.167,125.333 295.5,124C 298.167,122.667 298.167,121.333 295.5,120C 298.167,118.667 298.167,117.333 295.5,116C 298.167,114.667 298.167,113.333 295.5,112C 298.167,110.667 298.167,109.333 295.5,108C 298.167,106.667 298.167,105.333 295.5,104C 298.167,102.667 298.167,101.333 295.5,100C 298.167,98.6667 298.167,97.3333 295.5,96C 298.167,94.6667 298.167,93.3333 295.5,92C 298.167,90.6667 298.167,89.3333 295.5,88C 298.167,86.6667 298.167,85.3333 295.5,84C 298.167,82.6667 298.167,81.3333 295.5,80C 298.167,78.6667 298.167,77.3333 295.5,76C 298.167,74.6667 298.167,73.3333 295.5,72C 298.167,70.6667 298.167,69.3333 295.5,68C 298.167,66.6667 298.167,65.3333 295.5,64C 298.167,62.6667 298.167,61.3333 295.5,60C 298.167,58.6667 298.167,57.3333 295.5,56C 298.167,54.6667 298.167,53.3333 295.5,52C 298.167,50.6667 298.167,49.3333 295.5,48C 298.167,46.6667 298.167,45.3333 295.5,44C 298.167,42.6667 298.167,41.3333 295.5,40C 297.931,38.5682 297.931,37.0682 295.5,35.5 Z"/></g>
<g><path style="opacity:1" fill="#fec4dd" d="M 302.5,35.5 C 313.5,35.5 324.5,35.5 335.5,35.5C 335.5,86.5 335.5,137.5 335.5,188.5C 331.284,211.028 326.284,233.362 320.5,255.5C 313.418,226.588 306.751,197.588 300.5,168.5C 301.756,168.539 302.756,168.039 303.5,167C 303.402,123.215 303.069,79.3813 302.5,35.5 Z"/></g>
<g><path style="opacity:1" fill="#fec0e0" d="M 335.5,35.5 C 337.167,35.5 338.833,35.5 340.5,35.5C 341.264,77.713 341.597,120.046 341.5,162.5C 340.373,171.484 338.373,180.151 335.5,188.5C 335.5,137.5 335.5,86.5 335.5,35.5 Z"/></g>
<g><path style="opacity:1" fill="#febee4" d="M 340.5,35.5 C 345.833,35.5 351.167,35.5 356.5,35.5C 364.907,36.2038 372.24,39.3705 378.5,45C 381.118,47.1057 383.118,49.6057 384.5,52.5C 383.279,51.9717 382.113,51.305 381,50.5C 379.625,52.9772 377.791,53.8106 375.5,53C 376.598,81.7845 376.598,110.618 375.5,139.5C 368.492,139.334 361.492,139.5 354.5,140C 350.562,140.214 347.728,142.047 346,145.5C 344.673,151.343 343.173,157.01 341.5,162.5C 341.597,120.046 341.264,77.713 340.5,35.5 Z"/></g>
<g><path style="opacity:1" fill="#fee4bf" d="M 134.5,37.5 C 138.29,37.0077 138.956,37.841 136.5,40C 139.167,41.3333 139.167,42.6667 136.5,44C 139.167,45.3333 139.167,46.6667 136.5,48C 139.167,49.3333 139.167,50.6667 136.5,52C 139.167,53.3333 139.167,54.6667 136.5,56C 139.167,57.3333 139.167,58.6667 136.5,60C 139.167,61.3333 139.167,62.6667 136.5,64C 139.167,65.3333 139.167,66.6667 136.5,68C 139.167,69.3333 139.167,70.6667 136.5,72C 139.167,73.3333 139.167,74.6667 136.5,76C 139.167,77.3333 139.167,78.6667 136.5,80C 139.167,81.3333 139.167,82.6667 136.5,84C 139.167,85.3333 139.167,86.6667 136.5,88C 139.167,89.3333 139.167,90.6667 136.5,92C 139.167,93.3333 139.167,94.6667 136.5,96C 139.167,97.3333 139.167,98.6667 136.5,100C 139.167,101.333 139.167,102.667 136.5,104C 139.167,105.333 139.167,106.667 136.5,108C 139.167,109.333 139.167,110.667 136.5,112C 139.167,113.333 139.167,114.667 136.5,116C 139.167,117.333 139.167,118.667 136.5,120C 139.167,121.333 139.167,122.667 136.5,124C 139.167,125.333 139.167,126.667 136.5,128C 139.167,129.333 139.167,130.667 136.5,132C 139.167,133.333 139.167,134.667 136.5,136C 139.167,137.333 139.167,138.667 136.5,140C 139.159,141.866 138.826,143.033 135.5,143.5C 133.99,142.164 132.323,140.997 130.5,140C 121.84,139.5 113.173,139.334 104.5,139.5C 103.402,117.284 103.402,95.1178 104.5,73C 103.906,72.5357 103.239,72.369 102.5,72.5C 106.39,65.0589 110.556,57.7255 115,50.5C 120.341,44.3081 126.841,39.9748 134.5,37.5 Z"/></g>
<g><path style="opacity:1" fill="#feb8ea" d="M 384.5,52.5 C 395.656,70.1344 406.322,88.1344 416.5,106.5C 415.373,107.122 414.373,107.955 413.5,109C 414.833,203 414.833,297 413.5,391C 414.244,392.039 415.244,392.539 416.5,392.5C 406.086,410.997 395.419,429.331 384.5,447.5C 381.373,447.464 378.373,447.297 375.5,447C 375.833,417.333 376.167,387.667 376.5,358C 371.981,357.825 367.647,357.325 363.5,356.5C 373.506,356.666 383.506,356.5 393.5,356C 396.381,354.749 398.214,352.583 399,349.5C 399.667,282.167 399.667,214.833 399,147.5C 398.31,144.804 396.81,142.637 394.5,141C 388.243,139.683 381.909,139.183 375.5,139.5C 376.598,110.618 376.598,81.7845 375.5,53C 377.791,53.8106 379.625,52.9772 381,50.5C 382.113,51.305 383.279,51.9717 384.5,52.5 Z"/></g>
<g><path style="opacity:1" fill="#feeab9" d="M 102.5,72.5 C 103.239,72.369 103.906,72.5357 104.5,73C 103.402,95.1178 103.402,117.284 104.5,139.5C 97.0942,138.186 93.0942,141.186 92.5,148.5C 95.7673,158.634 99.434,168.634 103.5,178.5C 103.586,179.496 103.252,180.329 102.5,181C 103.167,181.667 103.833,182.333 104.5,183C 104.5,263 104.5,343 104.5,423C 103.756,424.039 102.756,424.539 101.5,424.5C 88.4703,403.45 75.8036,382.117 63.5,360.5C 64.7562,360.539 65.7562,360.039 66.5,359C 65.1667,286.333 65.1667,213.667 66.5,141C 65.7562,139.961 64.7562,139.461 63.5,139.5C 76.1088,116.903 89.1088,94.5692 102.5,72.5 Z"/></g>
<g><path style="opacity:1" fill="#ffb5ed" d="M 416.5,106.5 C 418.56,109.24 420.226,112.24 421.5,115.5C 420.761,115.369 420.094,115.536 419.5,116C 420.833,204.667 420.833,293.333 419.5,382C 420.044,382.717 420.711,383.217 421.5,383.5C 420.226,386.76 418.56,389.76 416.5,392.5C 415.244,392.539 414.244,392.039 413.5,391C 414.833,297 414.833,203 413.5,109C 414.373,107.955 415.373,107.122 416.5,106.5 Z"/></g>
<g><path style="opacity:1" fill="#ffb2f0" d="M 421.5,115.5 C 434.891,137.569 447.891,159.903 460.5,182.5C 459.527,183.791 458.527,183.791 457.5,182.5C 453.864,184.207 453.864,185.374 457.5,186C 456.167,186.667 456.167,187.333 457.5,188C 453.5,188.667 453.5,189.333 457.5,190C 453.998,192.011 453.998,193.344 457.5,194C 456.167,194.667 456.167,195.333 457.5,196C 453.5,196.667 453.5,197.333 457.5,198C 453.998,200.011 453.998,201.344 457.5,202C 456.167,202.667 456.167,203.333 457.5,204C 453.5,204.667 453.5,205.333 457.5,206C 453.998,208.011 453.998,209.344 457.5,210C 456.167,210.667 456.167,211.333 457.5,212C 453.5,212.667 453.5,213.333 457.5,214C 453.998,216.011 453.998,217.344 457.5,218C 456.167,218.667 456.167,219.333 457.5,220C 453.5,220.667 453.5,221.333 457.5,222C 453.998,224.011 453.998,225.344 457.5,226C 456.167,226.667 456.167,227.333 457.5,228C 453.5,228.667 453.5,229.333 457.5,230C 453.998,232.011 453.998,233.344 457.5,234C 456.167,234.667 456.167,235.333 457.5,236C 453.5,236.667 453.5,237.333 457.5,238C 453.998,240.011 453.998,241.344 457.5,242C 456.167,242.667 456.167,243.333 457.5,244C 453.5,244.667 453.5,245.333 457.5,246C 453.998,248.011 453.998,249.344 457.5,250C 456.167,250.667 456.167,251.333 457.5,252C 453.5,252.667 453.5,253.333 457.5,254C 453.998,256.011 453.998,257.344 457.5,258C 456.167,258.667 456.167,259.333 457.5,260C 453.5,260.667 453.5,261.333 457.5,262C 453.998,264.011 453.998,265.344 457.5,266C 456.167,266.667 456.167,267.333 457.5,268C 453.5,268.667 453.5,269.333 457.5,270C 453.998,272.011 453.998,273.344 457.5,274C 456.167,274.667 456.167,275.333 457.5,276C 453.5,276.667 453.5,277.333 457.5,278C 453.998,280.011 453.998,281.344 457.5,282C 456.167,282.667 456.167,283.333 457.5,284C 453.5,284.667 453.5,285.333 457.5,286C 453.998,288.011 453.998,289.344 457.5,290C 456.167,290.667 456.167,291.333 457.5,292C 453.5,292.667 453.5,293.333 457.5,294C 453.998,296.011 453.998,297.344 457.5,298C 456.167,298.667 456.167,299.333 457.5,300C 453.5,300.667 453.5,301.333 457.5,302C 453.998,304.011 453.998,305.344 457.5,306C 456.167,306.667 456.167,307.333 457.5,308C 453.5,308.667 453.5,309.333 457.5,310C 453.998,312.011 453.998,313.344 457.5,314C 456.167,314.667 456.167,315.333 457.5,316C 458.448,316.483 459.448,316.649 460.5,316.5C 447.891,339.097 434.891,361.431 421.5,383.5C 420.711,383.217 420.044,382.717 419.5,382C 420.833,293.333 420.833,204.667 419.5,116C 420.094,115.536 420.761,115.369 421.5,115.5 Z"/></g>
<g><path style="opacity:1" fill="#4d2597" d="M 104.5,139.5 C 113.173,139.334 121.84,139.5 130.5,140C 132.323,140.997 133.99,142.164 135.5,143.5C 139.223,151.669 142.557,160.002 145.5,168.5C 151.261,182.363 156.761,196.363 162,210.5C 167.401,198.369 172.234,186.036 176.5,173.5C 179.204,167.733 181.538,161.733 183.5,155.5C 185.408,151.644 187.241,147.644 189,143.5C 190.41,142.213 191.91,141.046 193.5,140C 202.494,139.5 211.494,139.334 220.5,139.5C 226.933,138.706 230.933,141.372 232.5,147.5C 227.777,160.612 222.777,173.612 217.5,186.5C 206.576,212.764 195.743,239.097 185,265.5C 184.667,293.167 184.333,320.833 184,348.5C 183.764,350.811 182.931,352.811 181.5,354.5C 180.711,354.783 180.044,355.283 179.5,356C 169.172,356.5 158.839,356.666 148.5,356.5C 147.041,356.567 145.708,356.234 144.5,355.5C 142.827,354.657 141.66,353.324 141,351.5C 140.667,323.167 140.333,294.833 140,266.5C 139.626,264.509 138.793,262.842 137.5,261.5C 126.541,233.608 115.207,205.942 103.5,178.5C 99.434,168.634 95.7673,158.634 92.5,148.5C 93.0942,141.186 97.0942,138.186 104.5,139.5 Z"/></g>
<g><path style="opacity:1" fill="#4e2599" d="M 256.5,139.5 C 267.172,139.333 277.839,139.5 288.5,140C 291.106,140.792 293.106,142.292 294.5,144.5C 297.129,152.302 299.129,160.302 300.5,168.5C 306.751,197.588 313.418,226.588 320.5,255.5C 326.284,233.362 331.284,211.028 335.5,188.5C 338.373,180.151 340.373,171.484 341.5,162.5C 343.173,157.01 344.673,151.343 346,145.5C 347.728,142.047 350.562,140.214 354.5,140C 361.492,139.5 368.492,139.334 375.5,139.5C 381.909,139.183 388.243,139.683 394.5,141C 396.81,142.637 398.31,144.804 399,147.5C 399.667,214.833 399.667,282.167 399,349.5C 398.214,352.583 396.381,354.749 393.5,356C 383.506,356.5 373.506,356.666 363.5,356.5C 359.5,355.833 357.167,353.5 356.5,349.5C 356.667,320.831 356.5,292.165 356,263.5C 355.283,264.044 354.783,264.711 354.5,265.5C 348.669,293.491 342.836,321.491 337,349.5C 335.628,350.91 334.795,352.577 334.5,354.5C 326.391,356.568 318.058,357.068 309.5,356C 307.153,354.128 305.153,351.961 303.5,349.5C 301.991,339.62 299.991,329.953 297.5,320.5C 293.726,302.858 290.06,285.192 286.5,267.5C 286.291,266.078 285.791,264.745 285,263.5C 284.5,291.831 284.333,320.165 284.5,348.5C 284.456,352.09 282.789,354.59 279.5,356C 270.173,356.5 260.839,356.666 251.5,356.5C 247.507,356.755 244.674,355.089 243,351.5C 242.333,282.5 242.333,213.5 243,144.5C 246.43,140.083 250.93,138.416 256.5,139.5 Z"/></g>
<g><path style="opacity:1" fill="#8b51fe" d="M 98.5,144.5 C 109.172,144.333 119.839,144.5 130.5,145C 141.941,170.391 152.441,196.224 162,222.5C 172.265,197.207 182.431,171.873 192.5,146.5C 193.025,145.808 193.692,145.308 194.5,145C 205.167,144.333 215.833,144.333 226.5,145C 228.211,146.133 228.711,147.633 228,149.5C 212.333,187.5 196.667,225.5 181,263.5C 180.667,291.833 180.333,320.167 180,348.5C 179.5,350.333 178.333,351.5 176.5,352C 166.833,352.667 157.167,352.667 147.5,352C 146.667,351.167 145.833,350.333 145,349.5C 144.667,321.167 144.333,292.833 144,264.5C 127.772,225.814 111.939,186.98 96.5,148C 96.8618,146.566 97.5285,145.399 98.5,144.5 Z"/></g>
<g><path style="opacity:1" fill="#8b51fe" d="M 248.5,144.5 C 261.837,144.333 275.171,144.5 288.5,145C 289.308,145.308 289.975,145.808 290.5,146.5C 300.755,189.443 310.755,232.443 320.5,275.5C 330.319,232.887 340.152,190.22 350,147.5C 350.833,146.667 351.667,145.833 352.5,145C 365.833,144.333 379.167,144.333 392.5,145C 393,145.5 393.5,146 394,146.5C 394.667,214.5 394.667,282.5 394,350.5C 392.933,351.191 391.766,351.691 390.5,352C 381.167,352.667 371.833,352.667 362.5,352C 362,351.5 361.5,351 361,350.5C 360.5,310.501 360.333,270.501 360.5,230.5C 359.5,230.5 358.5,230.5 357.5,230.5C 349.644,270.299 341.144,309.966 332,349.5C 331.167,350.333 330.333,351.167 329.5,352C 323.5,352.667 317.5,352.667 311.5,352C 310.667,351.167 309.833,350.333 309,349.5C 300.333,310.167 291.667,270.833 283,231.5C 282.586,231.043 282.086,230.709 281.5,230.5C 280.667,270.496 280.167,310.496 280,350.5C 279.25,351.126 278.416,351.626 277.5,352C 267.786,352.807 258.119,352.641 248.5,351.5C 247.808,350.975 247.308,350.308 247,349.5C 246.333,281.833 246.333,214.167 247,146.5C 247.717,145.956 248.217,145.289 248.5,144.5 Z"/></g>
<g><path style="opacity:1" fill="#fff0b4" d="M 63.5,139.5 C 64.7562,139.461 65.7562,139.961 66.5,141C 65.1667,213.667 65.1667,286.333 66.5,359C 65.7562,360.039 64.7562,360.539 63.5,360.5C 51.2352,339.635 39.2352,318.635 27.5,297.5C 29.7914,296.458 30.7914,294.958 30.5,293C 29.5,292 28.5,291 27.5,290C 28.5,289 29.5,288 30.5,287C 29.1667,286.333 29.1667,285.667 30.5,285C 29.5,284 28.5,283 27.5,282C 28.5,281 29.5,280 30.5,279C 29.1667,278.333 29.1667,277.667 30.5,277C 29.5,276 28.5,275 27.5,274C 28.5,273 29.5,272 30.5,271C 29.1667,270.333 29.1667,269.667 30.5,269C 29.5,268 28.5,267 27.5,266C 28.5,265 29.5,264 30.5,263C 29.1667,262.333 29.1667,261.667 30.5,261C 29.5,260 28.5,259 27.5,258C 28.5,257 29.5,256 30.5,255C 29.1667,254.333 29.1667,253.667 30.5,253C 29.5,252 28.5,251 27.5,250C 28.5,249 29.5,248 30.5,247C 29.1667,246.333 29.1667,245.667 30.5,245C 29.5,244 28.5,243 27.5,242C 28.5,241 29.5,240 30.5,239C 29.1667,238.333 29.1667,237.667 30.5,237C 29.5,236 28.5,235 27.5,234C 28.5,233 29.5,232 30.5,231C 29.1667,230.333 29.1667,229.667 30.5,229C 29.5,228 28.5,227 27.5,226C 28.5,225 29.5,224 30.5,223C 29.1667,222.333 29.1667,221.667 30.5,221C 29.5,220 28.5,219 27.5,218C 28.5,217 29.5,216 30.5,215C 29.1667,214.333 29.1667,213.667 30.5,213C 29.5,212 28.5,211 27.5,210C 28.5,209 29.5,208 30.5,207C 29.1667,206.333 29.1667,205.667 30.5,205C 29.6667,204.167 28.8333,203.333 28,202.5C 27.5831,203.756 26.7498,204.423 25.5,204.5C 37.9293,182.634 50.596,160.967 63.5,139.5 Z"/></g>
<g><path style="opacity:1" fill="#ffaef5" d="M 460.5,182.5 C 470.812,199.11 480.645,216.11 490,233.5C 494.667,244.167 494.667,254.833 490,265.5C 480.645,282.89 470.812,299.89 460.5,316.5C 459.448,316.649 458.448,316.483 457.5,316C 456.167,315.333 456.167,314.667 457.5,314C 453.998,313.344 453.998,312.011 457.5,310C 453.5,309.333 453.5,308.667 457.5,308C 456.167,307.333 456.167,306.667 457.5,306C 453.998,305.344 453.998,304.011 457.5,302C 453.5,301.333 453.5,300.667 457.5,300C 456.167,299.333 456.167,298.667 457.5,298C 453.998,297.344 453.998,296.011 457.5,294C 453.5,293.333 453.5,292.667 457.5,292C 456.167,291.333 456.167,290.667 457.5,290C 453.998,289.344 453.998,288.011 457.5,286C 453.5,285.333 453.5,284.667 457.5,284C 456.167,283.333 456.167,282.667 457.5,282C 453.998,281.344 453.998,280.011 457.5,278C 453.5,277.333 453.5,276.667 457.5,276C 456.167,275.333 456.167,274.667 457.5,274C 453.998,273.344 453.998,272.011 457.5,270C 453.5,269.333 453.5,268.667 457.5,268C 456.167,267.333 456.167,266.667 457.5,266C 453.998,265.344 453.998,264.011 457.5,262C 453.5,261.333 453.5,260.667 457.5,260C 456.167,259.333 456.167,258.667 457.5,258C 453.998,257.344 453.998,256.011 457.5,254C 453.5,253.333 453.5,252.667 457.5,252C 456.167,251.333 456.167,250.667 457.5,250C 453.998,249.344 453.998,248.011 457.5,246C 453.5,245.333 453.5,244.667 457.5,244C 456.167,243.333 456.167,242.667 457.5,242C 453.998,241.344 453.998,240.011 457.5,238C 453.5,237.333 453.5,236.667 457.5,236C 456.167,235.333 456.167,234.667 457.5,234C 453.998,233.344 453.998,232.011 457.5,230C 453.5,229.333 453.5,228.667 457.5,228C 456.167,227.333 456.167,226.667 457.5,226C 453.998,225.344 453.998,224.011 457.5,222C 453.5,221.333 453.5,220.667 457.5,220C 456.167,219.333 456.167,218.667 457.5,218C 453.998,217.344 453.998,216.011 457.5,214C 453.5,213.333 453.5,212.667 457.5,212C 456.167,211.333 456.167,210.667 457.5,210C 453.998,209.344 453.998,208.011 457.5,206C 453.5,205.333 453.5,204.667 457.5,204C 456.167,203.333 456.167,202.667 457.5,202C 453.998,201.344 453.998,200.011 457.5,198C 453.5,197.333 453.5,196.667 457.5,196C 456.167,195.333 456.167,194.667 457.5,194C 453.998,193.344 453.998,192.011 457.5,190C 453.5,189.333 453.5,188.667 457.5,188C 456.167,187.333 456.167,186.667 457.5,186C 453.864,185.374 453.864,184.207 457.5,182.5C 458.527,183.791 459.527,183.791 460.5,182.5 Z"/></g>
<g><path style="opacity:1" fill="#fee4be" d="M 103.5,178.5 C 115.207,205.942 126.541,233.608 137.5,261.5C 137.586,262.496 137.252,263.329 136.5,264C 139.167,265.333 139.167,266.667 136.5,268C 139.167,269.333 139.167,270.667 136.5,272C 139.167,273.333 139.167,274.667 136.5,276C 139.167,277.333 139.167,278.667 136.5,280C 139.167,281.333 139.167,282.667 136.5,284C 139.167,285.333 139.167,286.667 136.5,288C 139.167,289.333 139.167,290.667 136.5,292C 139.167,293.333 139.167,294.667 136.5,296C 139.167,297.333 139.167,298.667 136.5,300C 139.167,301.333 139.167,302.667 136.5,304C 139.167,305.333 139.167,306.667 136.5,308C 139.167,309.333 139.167,310.667 136.5,312C 139.167,313.333 139.167,314.667 136.5,316C 139.167,317.333 139.167,318.667 136.5,320C 139.167,321.333 139.167,322.667 136.5,324C 139.167,325.333 139.167,326.667 136.5,328C 139.167,329.333 139.167,330.667 136.5,332C 139.167,333.333 139.167,334.667 136.5,336C 139.167,337.333 139.167,338.667 136.5,340C 139.167,341.333 139.167,342.667 136.5,344C 139.167,345.333 139.167,346.667 136.5,348C 139.167,349.333 139.167,350.667 136.5,352C 139.167,353.333 139.167,354.667 136.5,356C 139.167,357.333 139.167,358.667 136.5,360C 139.167,361.333 139.167,362.667 136.5,364C 139.167,365.333 139.167,366.667 136.5,368C 139.167,369.333 139.167,370.667 136.5,372C 139.167,373.333 139.167,374.667 136.5,376C 139.167,377.333 139.167,378.667 136.5,380C 139.167,381.333 139.167,382.667 136.5,384C 139.167,385.333 139.167,386.667 136.5,388C 139.167,389.333 139.167,390.667 136.5,392C 139.167,393.333 139.167,394.667 136.5,396C 139.167,397.333 139.167,398.667 136.5,400C 139.167,401.333 139.167,402.667 136.5,404C 139.167,405.333 139.167,406.667 136.5,408C 139.167,409.333 139.167,410.667 136.5,412C 139.167,413.333 139.167,414.667 136.5,416C 139.167,417.333 139.167,418.667 136.5,420C 139.167,421.333 139.167,422.667 136.5,424C 139.167,425.333 139.167,426.667 136.5,428C 139.167,429.333 139.167,430.667 136.5,432C 139.167,433.333 139.167,434.667 136.5,436C 139.167,437.333 139.167,438.667 136.5,440C 139.167,441.333 139.167,442.667 136.5,444C 139.167,445.333 139.167,446.667 136.5,448C 139.167,449.333 139.167,450.667 136.5,452C 139.167,453.333 139.167,454.667 136.5,456C 139.167,457.333 139.167,458.667 136.5,460C 136.833,460.333 137.167,460.667 137.5,461C 136.552,461.483 135.552,461.649 134.5,461.5C 126.642,459.313 120.142,454.98 115,448.5C 109.716,440.931 105.216,432.931 101.5,424.5C 102.756,424.539 103.756,424.039 104.5,423C 104.5,343 104.5,263 104.5,183C 103.833,182.333 103.167,181.667 102.5,181C 103.252,180.329 103.586,179.496 103.5,178.5 Z"/></g>
<g><path style="opacity:1" fill="#fed7cb" d="M 217.5,186.5 C 218.289,186.783 218.956,187.283 219.5,188C 219.167,231.667 218.833,275.333 218.5,319C 219.167,320.333 219.833,321.667 220.5,323C 220.5,369.667 220.5,416.333 220.5,463C 208.505,463.5 196.505,463.667 184.5,463.5C 184.047,462.542 183.381,461.708 182.5,461C 183.5,460 184.5,459 185.5,458C 184.167,457.333 184.167,456.667 185.5,456C 184.5,455 183.5,454 182.5,453C 183.5,452 184.5,451 185.5,450C 184.167,449.333 184.167,448.667 185.5,448C 184.5,447 183.5,446 182.5,445C 183.5,444 184.5,443 185.5,442C 184.167,441.333 184.167,440.667 185.5,440C 184.5,439 183.5,438 182.5,437C 183.5,436 184.5,435 185.5,434C 184.167,433.333 184.167,432.667 185.5,432C 184.5,431 183.5,430 182.5,429C 183.5,428 184.5,427 185.5,426C 184.167,425.333 184.167,424.667 185.5,424C 184.5,423 183.5,422 182.5,421C 183.5,420 184.5,419 185.5,418C 184.167,417.333 184.167,416.667 185.5,416C 184.5,415 183.5,414 182.5,413C 183.5,412 184.5,411 185.5,410C 184.167,409.333 184.167,408.667 185.5,408C 184.5,407 183.5,406 182.5,405C 183.5,404 184.5,403 185.5,402C 184.167,401.333 184.167,400.667 185.5,400C 184.5,399 183.5,398 182.5,397C 183.5,396 184.5,395 185.5,394C 184.167,393.333 184.167,392.667 185.5,392C 184.5,391 183.5,390 182.5,389C 183.5,388 184.5,387 185.5,386C 184.167,385.333 184.167,384.667 185.5,384C 184.5,383 183.5,382 182.5,381C 183.5,380 184.5,379 185.5,378C 184.167,377.333 184.167,376.667 185.5,376C 184.5,375 183.5,374 182.5,373C 183.5,372 184.5,371 185.5,370C 184.167,369.333 184.167,368.667 185.5,368C 184.5,367 183.5,366 182.5,365C 183.5,364 184.5,363 185.5,362C 184.167,361.333 184.167,360.667 185.5,360C 184.5,359 183.5,358 182.5,357C 186.778,353.824 186.444,352.991 181.5,354.5C 182.931,352.811 183.764,350.811 184,348.5C 184.333,320.833 184.667,293.167 185,265.5C 195.743,239.097 206.576,212.764 217.5,186.5 Z"/></g>
<g><path style="opacity:1" fill="#fff4b1" d="M 27.5,297.5 C 20.856,287.561 14.6893,277.228 9,266.5C 4.41278,255.484 4.41278,244.484 9,233.5C 14.0212,223.446 19.5212,213.779 25.5,204.5C 26.7498,204.423 27.5831,203.756 28,202.5C 28.8333,203.333 29.6667,204.167 30.5,205C 29.1667,205.667 29.1667,206.333 30.5,207C 29.5,208 28.5,209 27.5,210C 28.5,211 29.5,212 30.5,213C 29.1667,213.667 29.1667,214.333 30.5,215C 29.5,216 28.5,217 27.5,218C 28.5,219 29.5,220 30.5,221C 29.1667,221.667 29.1667,222.333 30.5,223C 29.5,224 28.5,225 27.5,226C 28.5,227 29.5,228 30.5,229C 29.1667,229.667 29.1667,230.333 30.5,231C 29.5,232 28.5,233 27.5,234C 28.5,235 29.5,236 30.5,237C 29.1667,237.667 29.1667,238.333 30.5,239C 29.5,240 28.5,241 27.5,242C 28.5,243 29.5,244 30.5,245C 29.1667,245.667 29.1667,246.333 30.5,247C 29.5,248 28.5,249 27.5,250C 28.5,251 29.5,252 30.5,253C 29.1667,253.667 29.1667,254.333 30.5,255C 29.5,256 28.5,257 27.5,258C 28.5,259 29.5,260 30.5,261C 29.1667,261.667 29.1667,262.333 30.5,263C 29.5,264 28.5,265 27.5,266C 28.5,267 29.5,268 30.5,269C 29.1667,269.667 29.1667,270.333 30.5,271C 29.5,272 28.5,273 27.5,274C 28.5,275 29.5,276 30.5,277C 29.1667,277.667 29.1667,278.333 30.5,279C 29.5,280 28.5,281 27.5,282C 28.5,283 29.5,284 30.5,285C 29.1667,285.667 29.1667,286.333 30.5,287C 29.5,288 28.5,289 27.5,290C 28.5,291 29.5,292 30.5,293C 30.7914,294.958 29.7914,296.458 27.5,297.5 Z"/></g>
<g><path style="opacity:1" fill="#7447a7" d="M 356.5,349.5 C 355.833,321.5 355.167,293.5 354.5,265.5C 354.783,264.711 355.283,264.044 356,263.5C 356.5,292.165 356.667,320.831 356.5,349.5 Z"/></g>
<g><path style="opacity:1" fill="#febee3" d="M 354.5,265.5 C 355.167,293.5 355.833,321.5 356.5,349.5C 357.167,353.5 359.5,355.833 363.5,356.5C 367.647,357.325 371.981,357.825 376.5,358C 376.167,387.667 375.833,417.333 375.5,447C 378.373,447.297 381.373,447.464 384.5,447.5C 377.495,456.17 368.495,461.503 357.5,463.5C 349.833,463.5 342.167,463.5 334.5,463.5C 334.5,427.167 334.5,390.833 334.5,354.5C 334.795,352.577 335.628,350.91 337,349.5C 342.836,321.491 348.669,293.491 354.5,265.5 Z"/></g>
<g><path style="opacity:1" fill="#fecad7" d="M 286.5,267.5 C 290.06,285.192 293.726,302.858 297.5,320.5C 297.489,322.017 296.823,323.184 295.5,324C 298.167,325.333 298.167,326.667 295.5,328C 298.167,329.333 298.167,330.667 295.5,332C 298.167,333.333 298.167,334.667 295.5,336C 298.167,337.333 298.167,338.667 295.5,340C 298.167,341.333 298.167,342.667 295.5,344C 298.167,345.333 298.167,346.667 295.5,348C 298.167,349.333 298.167,350.667 295.5,352C 298.167,353.333 298.167,354.667 295.5,356C 298.167,357.333 298.167,358.667 295.5,360C 298.167,361.333 298.167,362.667 295.5,364C 298.167,365.333 298.167,366.667 295.5,368C 298.167,369.333 298.167,370.667 295.5,372C 298.167,373.333 298.167,374.667 295.5,376C 298.167,377.333 298.167,378.667 295.5,380C 298.167,381.333 298.167,382.667 295.5,384C 298.167,385.333 298.167,386.667 295.5,388C 298.167,389.333 298.167,390.667 295.5,392C 298.167,393.333 298.167,394.667 295.5,396C 298.167,397.333 298.167,398.667 295.5,400C 298.167,401.333 298.167,402.667 295.5,404C 298.167,405.333 298.167,406.667 295.5,408C 298.167,409.333 298.167,410.667 295.5,412C 298.167,413.333 298.167,414.667 295.5,416C 298.167,417.333 298.167,418.667 295.5,420C 298.167,421.333 298.167,422.667 295.5,424C 298.167,425.333 298.167,426.667 295.5,428C 298.167,429.333 298.167,430.667 295.5,432C 298.167,433.333 298.167,434.667 295.5,436C 298.167,437.333 298.167,438.667 295.5,440C 298.167,441.333 298.167,442.667 295.5,444C 298.167,445.333 298.167,446.667 295.5,448C 298.167,449.333 298.167,450.667 295.5,452C 298.167,453.333 298.167,454.667 295.5,456C 298.167,457.333 298.167,458.667 295.5,460C 297.373,460.953 297.706,462.12 296.5,463.5C 284.149,463.832 271.815,463.499 259.5,462.5C 259.587,449.63 259.587,436.797 259.5,424C 262.167,423.333 262.167,422.667 259.5,422C 260.833,421.333 260.833,420.667 259.5,420C 262.167,419.333 262.167,418.667 259.5,418C 260.833,417.333 260.833,416.667 259.5,416C 262.167,415.333 262.167,414.667 259.5,414C 260.833,413.333 260.833,412.667 259.5,412C 262.167,411.333 262.167,410.667 259.5,410C 260.833,409.333 260.833,408.667 259.5,408C 262.167,407.333 262.167,406.667 259.5,406C 260.833,405.333 260.833,404.667 259.5,404C 262.167,403.333 262.167,402.667 259.5,402C 260.833,401.333 260.833,400.667 259.5,400C 262.167,399.333 262.167,398.667 259.5,398C 260.833,397.333 260.833,396.667 259.5,396C 262.167,395.333 262.167,394.667 259.5,394C 260.833,393.333 260.833,392.667 259.5,392C 262.167,391.333 262.167,390.667 259.5,390C 260.833,389.333 260.833,388.667 259.5,388C 262.167,387.333 262.167,386.667 259.5,386C 260.833,385.333 260.833,384.667 259.5,384C 262.167,383.333 262.167,382.667 259.5,382C 260.833,381.333 260.833,380.667 259.5,380C 262.167,379.333 262.167,378.667 259.5,378C 260.833,377.333 260.833,376.667 259.5,376C 262.167,375.333 262.167,374.667 259.5,374C 260.833,373.333 260.833,372.667 259.5,372C 262.167,371.333 262.167,370.667 259.5,370C 260.833,369.333 260.833,368.667 259.5,368C 262.167,367.333 262.167,366.667 259.5,366C 260.833,365.333 260.833,364.667 259.5,364C 262.167,363.333 262.167,362.667 259.5,362C 260.833,361.333 260.833,360.667 259.5,360C 260.167,359.667 260.833,359.333 261.5,359C 258.091,358.004 254.758,357.171 251.5,356.5C 260.839,356.666 270.173,356.5 279.5,356C 282.789,354.59 284.456,352.09 284.5,348.5C 285.167,321.5 285.833,294.5 286.5,267.5 Z"/></g>
<g><path style="opacity:1" fill="#a274b5" d="M 286.5,267.5 C 285.833,294.5 285.167,321.5 284.5,348.5C 284.333,320.165 284.5,291.831 285,263.5C 285.791,264.745 286.291,266.078 286.5,267.5 Z"/></g>
<g><path style="opacity:1" fill="#fec7da" d="M 297.5,320.5 C 299.991,329.953 301.991,339.62 303.5,349.5C 302.5,387.333 302.5,425.333 303.5,463.5C 301.167,463.5 298.833,463.5 296.5,463.5C 297.706,462.12 297.373,460.953 295.5,460C 298.167,458.667 298.167,457.333 295.5,456C 298.167,454.667 298.167,453.333 295.5,452C 298.167,450.667 298.167,449.333 295.5,448C 298.167,446.667 298.167,445.333 295.5,444C 298.167,442.667 298.167,441.333 295.5,440C 298.167,438.667 298.167,437.333 295.5,436C 298.167,434.667 298.167,433.333 295.5,432C 298.167,430.667 298.167,429.333 295.5,428C 298.167,426.667 298.167,425.333 295.5,424C 298.167,422.667 298.167,421.333 295.5,420C 298.167,418.667 298.167,417.333 295.5,416C 298.167,414.667 298.167,413.333 295.5,412C 298.167,410.667 298.167,409.333 295.5,408C 298.167,406.667 298.167,405.333 295.5,404C 298.167,402.667 298.167,401.333 295.5,400C 298.167,398.667 298.167,397.333 295.5,396C 298.167,394.667 298.167,393.333 295.5,392C 298.167,390.667 298.167,389.333 295.5,388C 298.167,386.667 298.167,385.333 295.5,384C 298.167,382.667 298.167,381.333 295.5,380C 298.167,378.667 298.167,377.333 295.5,376C 298.167,374.667 298.167,373.333 295.5,372C 298.167,370.667 298.167,369.333 295.5,368C 298.167,366.667 298.167,365.333 295.5,364C 298.167,362.667 298.167,361.333 295.5,360C 298.167,358.667 298.167,357.333 295.5,356C 298.167,354.667 298.167,353.333 295.5,352C 298.167,350.667 298.167,349.333 295.5,348C 298.167,346.667 298.167,345.333 295.5,344C 298.167,342.667 298.167,341.333 295.5,340C 298.167,338.667 298.167,337.333 295.5,336C 298.167,334.667 298.167,333.333 295.5,332C 298.167,330.667 298.167,329.333 295.5,328C 298.167,326.667 298.167,325.333 295.5,324C 296.823,323.184 297.489,322.017 297.5,320.5 Z"/></g>
<g><path style="opacity:1" fill="#fbddc1" d="M 137.5,261.5 C 138.793,262.842 139.626,264.509 140,266.5C 140.333,294.833 140.667,323.167 141,351.5C 141.66,353.324 142.827,354.657 144.5,355.5C 144.541,357.745 145.375,358.412 147,357.5C 147.5,358 148,358.5 148.5,359C 147.167,366.333 147.167,373.667 148.5,381C 147.833,381.667 147.167,382.333 146.5,383C 146.736,409.785 146.736,436.618 146.5,463.5C 144.833,463.5 143.167,463.5 141.5,463.5C 138.848,463.59 136.515,462.924 134.5,461.5C 135.552,461.649 136.552,461.483 137.5,461C 137.167,460.667 136.833,460.333 136.5,460C 139.167,458.667 139.167,457.333 136.5,456C 139.167,454.667 139.167,453.333 136.5,452C 139.167,450.667 139.167,449.333 136.5,448C 139.167,446.667 139.167,445.333 136.5,444C 139.167,442.667 139.167,441.333 136.5,440C 139.167,438.667 139.167,437.333 136.5,436C 139.167,434.667 139.167,433.333 136.5,432C 139.167,430.667 139.167,429.333 136.5,428C 139.167,426.667 139.167,425.333 136.5,424C 139.167,422.667 139.167,421.333 136.5,420C 139.167,418.667 139.167,417.333 136.5,416C 139.167,414.667 139.167,413.333 136.5,412C 139.167,410.667 139.167,409.333 136.5,408C 139.167,406.667 139.167,405.333 136.5,404C 139.167,402.667 139.167,401.333 136.5,400C 139.167,398.667 139.167,397.333 136.5,396C 139.167,394.667 139.167,393.333 136.5,392C 139.167,390.667 139.167,389.333 136.5,388C 139.167,386.667 139.167,385.333 136.5,384C 139.167,382.667 139.167,381.333 136.5,380C 139.167,378.667 139.167,377.333 136.5,376C 139.167,374.667 139.167,373.333 136.5,372C 139.167,370.667 139.167,369.333 136.5,368C 139.167,366.667 139.167,365.333 136.5,364C 139.167,362.667 139.167,361.333 136.5,360C 139.167,358.667 139.167,357.333 136.5,356C 139.167,354.667 139.167,353.333 136.5,352C 139.167,350.667 139.167,349.333 136.5,348C 139.167,346.667 139.167,345.333 136.5,344C 139.167,342.667 139.167,341.333 136.5,340C 139.167,338.667 139.167,337.333 136.5,336C 139.167,334.667 139.167,333.333 136.5,332C 139.167,330.667 139.167,329.333 136.5,328C 139.167,326.667 139.167,325.333 136.5,324C 139.167,322.667 139.167,321.333 136.5,320C 139.167,318.667 139.167,317.333 136.5,316C 139.167,314.667 139.167,313.333 136.5,312C 139.167,310.667 139.167,309.333 136.5,308C 139.167,306.667 139.167,305.333 136.5,304C 139.167,302.667 139.167,301.333 136.5,300C 139.167,298.667 139.167,297.333 136.5,296C 139.167,294.667 139.167,293.333 136.5,292C 139.167,290.667 139.167,289.333 136.5,288C 139.167,286.667 139.167,285.333 136.5,284C 139.167,282.667 139.167,281.333 136.5,280C 139.167,278.667 139.167,277.333 136.5,276C 139.167,274.667 139.167,273.333 136.5,272C 139.167,270.667 139.167,269.333 136.5,268C 139.167,266.667 139.167,265.333 136.5,264C 137.252,263.329 137.586,262.496 137.5,261.5 Z"/></g>
<g><path style="opacity:1" fill="#fec4dd" d="M 303.5,349.5 C 305.153,351.961 307.153,354.128 309.5,356C 318.058,357.068 326.391,356.568 334.5,354.5C 334.5,390.833 334.5,427.167 334.5,463.5C 324.167,463.5 313.833,463.5 303.5,463.5C 302.5,425.333 302.5,387.333 303.5,349.5 Z"/></g>
<g><path style="opacity:1" fill="#fcd8c7" d="M 184.5,463.5 C 181.5,463.5 178.5,463.5 175.5,463.5C 175.597,428.283 175.931,393.117 176.5,358C 166.991,357.83 157.658,357.33 148.5,356.5C 158.839,356.666 169.172,356.5 179.5,356C 180.044,355.283 180.711,354.783 181.5,354.5C 186.444,352.991 186.778,353.824 182.5,357C 183.5,358 184.5,359 185.5,360C 184.167,360.667 184.167,361.333 185.5,362C 184.5,363 183.5,364 182.5,365C 183.5,366 184.5,367 185.5,368C 184.167,368.667 184.167,369.333 185.5,370C 184.5,371 183.5,372 182.5,373C 183.5,374 184.5,375 185.5,376C 184.167,376.667 184.167,377.333 185.5,378C 184.5,379 183.5,380 182.5,381C 183.5,382 184.5,383 185.5,384C 184.167,384.667 184.167,385.333 185.5,386C 184.5,387 183.5,388 182.5,389C 183.5,390 184.5,391 185.5,392C 184.167,392.667 184.167,393.333 185.5,394C 184.5,395 183.5,396 182.5,397C 183.5,398 184.5,399 185.5,400C 184.167,400.667 184.167,401.333 185.5,402C 184.5,403 183.5,404 182.5,405C 183.5,406 184.5,407 185.5,408C 184.167,408.667 184.167,409.333 185.5,410C 184.5,411 183.5,412 182.5,413C 183.5,414 184.5,415 185.5,416C 184.167,416.667 184.167,417.333 185.5,418C 184.5,419 183.5,420 182.5,421C 183.5,422 184.5,423 185.5,424C 184.167,424.667 184.167,425.333 185.5,426C 184.5,427 183.5,428 182.5,429C 183.5,430 184.5,431 185.5,432C 184.167,432.667 184.167,433.333 185.5,434C 184.5,435 183.5,436 182.5,437C 183.5,438 184.5,439 185.5,440C 184.167,440.667 184.167,441.333 185.5,442C 184.5,443 183.5,444 182.5,445C 183.5,446 184.5,447 185.5,448C 184.167,448.667 184.167,449.333 185.5,450C 184.5,451 183.5,452 182.5,453C 183.5,454 184.5,455 185.5,456C 184.167,456.667 184.167,457.333 185.5,458C 184.5,459 183.5,460 182.5,461C 183.381,461.708 184.047,462.542 184.5,463.5 Z"/></g>
<g><path style="opacity:1" fill="#fedec5" d="M 144.5,355.5 C 145.708,356.234 147.041,356.567 148.5,356.5C 157.658,357.33 166.991,357.83 176.5,358C 175.931,393.117 175.597,428.283 175.5,463.5C 165.833,463.5 156.167,463.5 146.5,463.5C 146.736,436.618 146.736,409.785 146.5,383C 147.167,382.333 147.833,381.667 148.5,381C 147.167,373.667 147.167,366.333 148.5,359C 148,358.5 147.5,358 147,357.5C 145.375,358.412 144.541,357.745 144.5,355.5 Z"/></g>
</svg>
